%TF.GenerationSoftware,KiCad,Pcbnew,(5.1.12)-1*%
%TF.CreationDate,2021-12-23T20:15:37-08:00*%
%TF.ProjectId,frozen_stuff,66726f7a-656e-45f7-9374-7566662e6b69,rev?*%
%TF.SameCoordinates,Original*%
%TF.FileFunction,Paste,Top*%
%TF.FilePolarity,Positive*%
%FSLAX46Y46*%
G04 Gerber Fmt 4.6, Leading zero omitted, Abs format (unit mm)*
G04 Created by KiCad (PCBNEW (5.1.12)-1) date 2021-12-23 20:15:37*
%MOMM*%
%LPD*%
G01*
G04 APERTURE LIST*
%ADD10R,0.900000X1.200000*%
%ADD11R,0.750000X1.200000*%
%ADD12R,1.200000X0.900000*%
%ADD13R,1.200000X0.750000*%
%ADD14R,0.600000X1.550000*%
%ADD15R,3.325000X2.400000*%
%ADD16R,1.500000X0.400000*%
%ADD17R,0.900000X1.700000*%
%ADD18R,0.800000X1.100000*%
%ADD19R,0.900000X0.800000*%
%ADD20R,0.650000X1.060000*%
%ADD21R,0.800000X0.900000*%
%ADD22R,3.800000X2.000000*%
%ADD23R,1.500000X2.000000*%
%ADD24R,0.900000X0.400000*%
%ADD25R,1.200000X1.500000*%
%ADD26R,0.450000X1.300000*%
%ADD27R,1.550000X0.600000*%
G04 APERTURE END LIST*
D10*
%TO.C,R23*%
X195700000Y-87200000D03*
X195700000Y-89400000D03*
%TD*%
D11*
%TO.C,C28*%
X163880800Y-96230400D03*
X163880800Y-98130400D03*
%TD*%
%TO.C,C5*%
X177012600Y-114528600D03*
X177012600Y-116428600D03*
%TD*%
D12*
%TO.C,R22*%
X164500000Y-118300000D03*
X166700000Y-118300000D03*
%TD*%
D10*
%TO.C,R21*%
X164134800Y-113301600D03*
X164134800Y-115501600D03*
%TD*%
D12*
%TO.C,R20*%
X167400000Y-119800000D03*
X165200000Y-119800000D03*
%TD*%
D10*
%TO.C,R19*%
X165658800Y-113454000D03*
X165658800Y-115654000D03*
%TD*%
D11*
%TO.C,C30*%
X171958000Y-112842000D03*
X171958000Y-114742000D03*
%TD*%
D13*
%TO.C,C29*%
X172059600Y-111252000D03*
X170159600Y-111252000D03*
%TD*%
D11*
%TO.C,C27*%
X163931600Y-100548400D03*
X163931600Y-102448400D03*
%TD*%
D13*
%TO.C,C10*%
X170622000Y-108404000D03*
X168722000Y-108404000D03*
%TD*%
%TO.C,C26*%
X168722000Y-109791500D03*
X170622000Y-109791500D03*
%TD*%
%TO.C,C11*%
X170815000Y-104140000D03*
X168915000Y-104140000D03*
%TD*%
D14*
%TO.C,U7*%
X166433500Y-105250000D03*
X165163500Y-105250000D03*
X163893500Y-105250000D03*
X162623500Y-105250000D03*
X162623500Y-110650000D03*
X163893500Y-110650000D03*
X165163500Y-110650000D03*
X166433500Y-110650000D03*
%TD*%
D15*
%TO.C,Y1*%
X172497500Y-122072400D03*
X178022500Y-122072400D03*
%TD*%
D12*
%TO.C,R3*%
X198361000Y-95577000D03*
X196161000Y-95577000D03*
%TD*%
D13*
%TO.C,C4*%
X181071000Y-112849000D03*
X182971000Y-112849000D03*
%TD*%
D16*
%TO.C,U3*%
X190470000Y-104960000D03*
X190470000Y-105610000D03*
X190470000Y-106260000D03*
X193130000Y-106260000D03*
X193130000Y-105610000D03*
X193130000Y-104960000D03*
%TD*%
D10*
%TO.C,R16*%
X200690000Y-108574000D03*
X200690000Y-110774000D03*
%TD*%
%TO.C,R15*%
X200690000Y-102816000D03*
X200690000Y-100616000D03*
%TD*%
%TO.C,R14*%
X199166000Y-108574000D03*
X199166000Y-110774000D03*
%TD*%
%TO.C,R13*%
X199166000Y-102900000D03*
X199166000Y-100700000D03*
%TD*%
D12*
%TO.C,R12*%
X197472000Y-106880000D03*
X195272000Y-106880000D03*
%TD*%
%TO.C,R11*%
X197302000Y-104594000D03*
X195102000Y-104594000D03*
%TD*%
D13*
%TO.C,C25*%
X201132000Y-106880000D03*
X199232000Y-106880000D03*
%TD*%
%TO.C,C24*%
X201066000Y-104594000D03*
X199166000Y-104594000D03*
%TD*%
D11*
%TO.C,C23*%
X197642000Y-110558000D03*
X197642000Y-108658000D03*
%TD*%
%TO.C,C22*%
X197642000Y-100916000D03*
X197642000Y-102816000D03*
%TD*%
D13*
%TO.C,C21*%
X192369000Y-103324000D03*
X190469000Y-103324000D03*
%TD*%
D11*
%TO.C,C12*%
X177830000Y-100273500D03*
X177830000Y-98373500D03*
%TD*%
D17*
%TO.C,SW1*%
X173590000Y-92852000D03*
X176990000Y-92852000D03*
D18*
X175290000Y-94492000D03*
%TD*%
D12*
%TO.C,R10*%
X169702000Y-95386500D03*
X167502000Y-95386500D03*
%TD*%
%TO.C,R9*%
X169659000Y-93862500D03*
X167459000Y-93862500D03*
%TD*%
D19*
%TO.C,Q2*%
X198166000Y-87769000D03*
X198166000Y-89669000D03*
X200166000Y-88719000D03*
%TD*%
D20*
%TO.C,U6*%
X192120000Y-85501000D03*
X193070000Y-85501000D03*
X194020000Y-85501000D03*
X194020000Y-83301000D03*
X192120000Y-83301000D03*
%TD*%
D10*
%TO.C,R8*%
X194213000Y-89438000D03*
X194213000Y-87238000D03*
%TD*%
%TO.C,R7*%
X191927000Y-89438000D03*
X191927000Y-87238000D03*
%TD*%
%TO.C,R6*%
X182900000Y-92500000D03*
X182900000Y-94700000D03*
%TD*%
D21*
%TO.C,Q3*%
X185486000Y-90535000D03*
X187386000Y-90535000D03*
X186436000Y-88535000D03*
%TD*%
D12*
%TO.C,D2*%
X185700000Y-92550000D03*
X185700000Y-95850000D03*
%TD*%
D11*
%TO.C,C20*%
X190403000Y-85478000D03*
X190403000Y-83578000D03*
%TD*%
%TO.C,C17*%
X176450000Y-100022000D03*
X176450000Y-98122000D03*
%TD*%
%TO.C,C16*%
X178409600Y-114543800D03*
X178409600Y-116443800D03*
%TD*%
%TO.C,C13*%
X179227000Y-100276000D03*
X179227000Y-98376000D03*
%TD*%
D13*
%TO.C,C9*%
X182722000Y-103070000D03*
X184622000Y-103070000D03*
%TD*%
%TO.C,C8*%
X182722000Y-104648000D03*
X184622000Y-104648000D03*
%TD*%
D11*
%TO.C,C7*%
X183608500Y-100464000D03*
X183608500Y-98564000D03*
%TD*%
D13*
%TO.C,C6*%
X182275000Y-108404000D03*
X184175000Y-108404000D03*
%TD*%
D22*
%TO.C,U5*%
X190627000Y-93585000D03*
D23*
X190627000Y-99885000D03*
X192927000Y-99885000D03*
X188327000Y-99885000D03*
%TD*%
D24*
%TO.C,U1*%
X199717000Y-92387000D03*
X199717000Y-93687000D03*
X201917000Y-93037000D03*
X199717000Y-93037000D03*
X201917000Y-93687000D03*
X201917000Y-92387000D03*
%TD*%
D12*
%TO.C,R2*%
X202425000Y-95196000D03*
X200225000Y-95196000D03*
%TD*%
%TO.C,R1*%
X194000000Y-81500000D03*
X191800000Y-81500000D03*
%TD*%
D19*
%TO.C,Q1*%
X198166000Y-84086000D03*
X198166000Y-85986000D03*
X200166000Y-85036000D03*
%TD*%
D25*
%TO.C,L1*%
X204373000Y-90671000D03*
X204373000Y-93371000D03*
%TD*%
D26*
%TO.C,J1*%
X182305000Y-85793000D03*
X181655000Y-85793000D03*
X181005000Y-85793000D03*
X180355000Y-85793000D03*
X179705000Y-85793000D03*
%TD*%
D12*
%TO.C,D1*%
X196300000Y-84150000D03*
X196300000Y-80850000D03*
%TD*%
D13*
%TO.C,C19*%
X191358000Y-101927000D03*
X193258000Y-101927000D03*
%TD*%
D11*
%TO.C,C18*%
X195102000Y-99834000D03*
X195102000Y-101734000D03*
%TD*%
D13*
%TO.C,C3*%
X202275000Y-96550000D03*
X200375000Y-96550000D03*
%TD*%
D11*
%TO.C,C1*%
X198150000Y-91706000D03*
X198150000Y-93606000D03*
%TD*%
D10*
%TO.C,R5*%
X182084500Y-98414000D03*
X182084500Y-100614000D03*
%TD*%
%TO.C,R4*%
X180624000Y-98414000D03*
X180624000Y-100614000D03*
%TD*%
D11*
%TO.C,C15*%
X180800000Y-121071600D03*
X180800000Y-122971600D03*
%TD*%
%TO.C,C14*%
X169773600Y-121020800D03*
X169773600Y-122920800D03*
%TD*%
D13*
%TO.C,C2*%
X171546000Y-95386500D03*
X173446000Y-95386500D03*
%TD*%
%TO.C,U4*%
G36*
G01*
X174495000Y-104338000D02*
X174495000Y-103563000D01*
G75*
G02*
X174545000Y-103513000I50000J0D01*
G01*
X174645000Y-103513000D01*
G75*
G02*
X174695000Y-103563000I0J-50000D01*
G01*
X174695000Y-104338000D01*
G75*
G02*
X174645000Y-104388000I-50000J0D01*
G01*
X174545000Y-104388000D01*
G75*
G02*
X174495000Y-104338000I0J50000D01*
G01*
G37*
G36*
G01*
X174895000Y-104338000D02*
X174895000Y-103563000D01*
G75*
G02*
X174945000Y-103513000I50000J0D01*
G01*
X175045000Y-103513000D01*
G75*
G02*
X175095000Y-103563000I0J-50000D01*
G01*
X175095000Y-104338000D01*
G75*
G02*
X175045000Y-104388000I-50000J0D01*
G01*
X174945000Y-104388000D01*
G75*
G02*
X174895000Y-104338000I0J50000D01*
G01*
G37*
G36*
G01*
X175295000Y-104338000D02*
X175295000Y-103563000D01*
G75*
G02*
X175345000Y-103513000I50000J0D01*
G01*
X175445000Y-103513000D01*
G75*
G02*
X175495000Y-103563000I0J-50000D01*
G01*
X175495000Y-104338000D01*
G75*
G02*
X175445000Y-104388000I-50000J0D01*
G01*
X175345000Y-104388000D01*
G75*
G02*
X175295000Y-104338000I0J50000D01*
G01*
G37*
G36*
G01*
X175695000Y-104338000D02*
X175695000Y-103563000D01*
G75*
G02*
X175745000Y-103513000I50000J0D01*
G01*
X175845000Y-103513000D01*
G75*
G02*
X175895000Y-103563000I0J-50000D01*
G01*
X175895000Y-104338000D01*
G75*
G02*
X175845000Y-104388000I-50000J0D01*
G01*
X175745000Y-104388000D01*
G75*
G02*
X175695000Y-104338000I0J50000D01*
G01*
G37*
G36*
G01*
X176095000Y-104338000D02*
X176095000Y-103563000D01*
G75*
G02*
X176145000Y-103513000I50000J0D01*
G01*
X176245000Y-103513000D01*
G75*
G02*
X176295000Y-103563000I0J-50000D01*
G01*
X176295000Y-104338000D01*
G75*
G02*
X176245000Y-104388000I-50000J0D01*
G01*
X176145000Y-104388000D01*
G75*
G02*
X176095000Y-104338000I0J50000D01*
G01*
G37*
G36*
G01*
X176495000Y-104338000D02*
X176495000Y-103563000D01*
G75*
G02*
X176545000Y-103513000I50000J0D01*
G01*
X176645000Y-103513000D01*
G75*
G02*
X176695000Y-103563000I0J-50000D01*
G01*
X176695000Y-104338000D01*
G75*
G02*
X176645000Y-104388000I-50000J0D01*
G01*
X176545000Y-104388000D01*
G75*
G02*
X176495000Y-104338000I0J50000D01*
G01*
G37*
G36*
G01*
X176895000Y-104338000D02*
X176895000Y-103563000D01*
G75*
G02*
X176945000Y-103513000I50000J0D01*
G01*
X177045000Y-103513000D01*
G75*
G02*
X177095000Y-103563000I0J-50000D01*
G01*
X177095000Y-104338000D01*
G75*
G02*
X177045000Y-104388000I-50000J0D01*
G01*
X176945000Y-104388000D01*
G75*
G02*
X176895000Y-104338000I0J50000D01*
G01*
G37*
G36*
G01*
X177295000Y-104338000D02*
X177295000Y-103563000D01*
G75*
G02*
X177345000Y-103513000I50000J0D01*
G01*
X177445000Y-103513000D01*
G75*
G02*
X177495000Y-103563000I0J-50000D01*
G01*
X177495000Y-104338000D01*
G75*
G02*
X177445000Y-104388000I-50000J0D01*
G01*
X177345000Y-104388000D01*
G75*
G02*
X177295000Y-104338000I0J50000D01*
G01*
G37*
G36*
G01*
X177695000Y-104338000D02*
X177695000Y-103563000D01*
G75*
G02*
X177745000Y-103513000I50000J0D01*
G01*
X177845000Y-103513000D01*
G75*
G02*
X177895000Y-103563000I0J-50000D01*
G01*
X177895000Y-104338000D01*
G75*
G02*
X177845000Y-104388000I-50000J0D01*
G01*
X177745000Y-104388000D01*
G75*
G02*
X177695000Y-104338000I0J50000D01*
G01*
G37*
G36*
G01*
X178095000Y-104338000D02*
X178095000Y-103563000D01*
G75*
G02*
X178145000Y-103513000I50000J0D01*
G01*
X178245000Y-103513000D01*
G75*
G02*
X178295000Y-103563000I0J-50000D01*
G01*
X178295000Y-104338000D01*
G75*
G02*
X178245000Y-104388000I-50000J0D01*
G01*
X178145000Y-104388000D01*
G75*
G02*
X178095000Y-104338000I0J50000D01*
G01*
G37*
G36*
G01*
X178495000Y-104338000D02*
X178495000Y-103563000D01*
G75*
G02*
X178545000Y-103513000I50000J0D01*
G01*
X178645000Y-103513000D01*
G75*
G02*
X178695000Y-103563000I0J-50000D01*
G01*
X178695000Y-104338000D01*
G75*
G02*
X178645000Y-104388000I-50000J0D01*
G01*
X178545000Y-104388000D01*
G75*
G02*
X178495000Y-104338000I0J50000D01*
G01*
G37*
G36*
G01*
X178895000Y-104338000D02*
X178895000Y-103563000D01*
G75*
G02*
X178945000Y-103513000I50000J0D01*
G01*
X179045000Y-103513000D01*
G75*
G02*
X179095000Y-103563000I0J-50000D01*
G01*
X179095000Y-104338000D01*
G75*
G02*
X179045000Y-104388000I-50000J0D01*
G01*
X178945000Y-104388000D01*
G75*
G02*
X178895000Y-104338000I0J50000D01*
G01*
G37*
G36*
G01*
X179295000Y-104338000D02*
X179295000Y-103563000D01*
G75*
G02*
X179345000Y-103513000I50000J0D01*
G01*
X179445000Y-103513000D01*
G75*
G02*
X179495000Y-103563000I0J-50000D01*
G01*
X179495000Y-104338000D01*
G75*
G02*
X179445000Y-104388000I-50000J0D01*
G01*
X179345000Y-104388000D01*
G75*
G02*
X179295000Y-104338000I0J50000D01*
G01*
G37*
G36*
G01*
X179695000Y-104338000D02*
X179695000Y-103563000D01*
G75*
G02*
X179745000Y-103513000I50000J0D01*
G01*
X179845000Y-103513000D01*
G75*
G02*
X179895000Y-103563000I0J-50000D01*
G01*
X179895000Y-104338000D01*
G75*
G02*
X179845000Y-104388000I-50000J0D01*
G01*
X179745000Y-104388000D01*
G75*
G02*
X179695000Y-104338000I0J50000D01*
G01*
G37*
G36*
G01*
X180195000Y-104838000D02*
X180195000Y-104738000D01*
G75*
G02*
X180245000Y-104688000I50000J0D01*
G01*
X181020000Y-104688000D01*
G75*
G02*
X181070000Y-104738000I0J-50000D01*
G01*
X181070000Y-104838000D01*
G75*
G02*
X181020000Y-104888000I-50000J0D01*
G01*
X180245000Y-104888000D01*
G75*
G02*
X180195000Y-104838000I0J50000D01*
G01*
G37*
G36*
G01*
X180195000Y-105238000D02*
X180195000Y-105138000D01*
G75*
G02*
X180245000Y-105088000I50000J0D01*
G01*
X181020000Y-105088000D01*
G75*
G02*
X181070000Y-105138000I0J-50000D01*
G01*
X181070000Y-105238000D01*
G75*
G02*
X181020000Y-105288000I-50000J0D01*
G01*
X180245000Y-105288000D01*
G75*
G02*
X180195000Y-105238000I0J50000D01*
G01*
G37*
G36*
G01*
X180195000Y-105638000D02*
X180195000Y-105538000D01*
G75*
G02*
X180245000Y-105488000I50000J0D01*
G01*
X181020000Y-105488000D01*
G75*
G02*
X181070000Y-105538000I0J-50000D01*
G01*
X181070000Y-105638000D01*
G75*
G02*
X181020000Y-105688000I-50000J0D01*
G01*
X180245000Y-105688000D01*
G75*
G02*
X180195000Y-105638000I0J50000D01*
G01*
G37*
G36*
G01*
X180195000Y-106038000D02*
X180195000Y-105938000D01*
G75*
G02*
X180245000Y-105888000I50000J0D01*
G01*
X181020000Y-105888000D01*
G75*
G02*
X181070000Y-105938000I0J-50000D01*
G01*
X181070000Y-106038000D01*
G75*
G02*
X181020000Y-106088000I-50000J0D01*
G01*
X180245000Y-106088000D01*
G75*
G02*
X180195000Y-106038000I0J50000D01*
G01*
G37*
G36*
G01*
X180195000Y-106438000D02*
X180195000Y-106338000D01*
G75*
G02*
X180245000Y-106288000I50000J0D01*
G01*
X181020000Y-106288000D01*
G75*
G02*
X181070000Y-106338000I0J-50000D01*
G01*
X181070000Y-106438000D01*
G75*
G02*
X181020000Y-106488000I-50000J0D01*
G01*
X180245000Y-106488000D01*
G75*
G02*
X180195000Y-106438000I0J50000D01*
G01*
G37*
G36*
G01*
X180195000Y-106838000D02*
X180195000Y-106738000D01*
G75*
G02*
X180245000Y-106688000I50000J0D01*
G01*
X181020000Y-106688000D01*
G75*
G02*
X181070000Y-106738000I0J-50000D01*
G01*
X181070000Y-106838000D01*
G75*
G02*
X181020000Y-106888000I-50000J0D01*
G01*
X180245000Y-106888000D01*
G75*
G02*
X180195000Y-106838000I0J50000D01*
G01*
G37*
G36*
G01*
X180195000Y-107238000D02*
X180195000Y-107138000D01*
G75*
G02*
X180245000Y-107088000I50000J0D01*
G01*
X181020000Y-107088000D01*
G75*
G02*
X181070000Y-107138000I0J-50000D01*
G01*
X181070000Y-107238000D01*
G75*
G02*
X181020000Y-107288000I-50000J0D01*
G01*
X180245000Y-107288000D01*
G75*
G02*
X180195000Y-107238000I0J50000D01*
G01*
G37*
G36*
G01*
X180195000Y-107638000D02*
X180195000Y-107538000D01*
G75*
G02*
X180245000Y-107488000I50000J0D01*
G01*
X181020000Y-107488000D01*
G75*
G02*
X181070000Y-107538000I0J-50000D01*
G01*
X181070000Y-107638000D01*
G75*
G02*
X181020000Y-107688000I-50000J0D01*
G01*
X180245000Y-107688000D01*
G75*
G02*
X180195000Y-107638000I0J50000D01*
G01*
G37*
G36*
G01*
X180195000Y-108038000D02*
X180195000Y-107938000D01*
G75*
G02*
X180245000Y-107888000I50000J0D01*
G01*
X181020000Y-107888000D01*
G75*
G02*
X181070000Y-107938000I0J-50000D01*
G01*
X181070000Y-108038000D01*
G75*
G02*
X181020000Y-108088000I-50000J0D01*
G01*
X180245000Y-108088000D01*
G75*
G02*
X180195000Y-108038000I0J50000D01*
G01*
G37*
G36*
G01*
X180195000Y-108438000D02*
X180195000Y-108338000D01*
G75*
G02*
X180245000Y-108288000I50000J0D01*
G01*
X181020000Y-108288000D01*
G75*
G02*
X181070000Y-108338000I0J-50000D01*
G01*
X181070000Y-108438000D01*
G75*
G02*
X181020000Y-108488000I-50000J0D01*
G01*
X180245000Y-108488000D01*
G75*
G02*
X180195000Y-108438000I0J50000D01*
G01*
G37*
G36*
G01*
X180195000Y-108838000D02*
X180195000Y-108738000D01*
G75*
G02*
X180245000Y-108688000I50000J0D01*
G01*
X181020000Y-108688000D01*
G75*
G02*
X181070000Y-108738000I0J-50000D01*
G01*
X181070000Y-108838000D01*
G75*
G02*
X181020000Y-108888000I-50000J0D01*
G01*
X180245000Y-108888000D01*
G75*
G02*
X180195000Y-108838000I0J50000D01*
G01*
G37*
G36*
G01*
X180195000Y-109238000D02*
X180195000Y-109138000D01*
G75*
G02*
X180245000Y-109088000I50000J0D01*
G01*
X181020000Y-109088000D01*
G75*
G02*
X181070000Y-109138000I0J-50000D01*
G01*
X181070000Y-109238000D01*
G75*
G02*
X181020000Y-109288000I-50000J0D01*
G01*
X180245000Y-109288000D01*
G75*
G02*
X180195000Y-109238000I0J50000D01*
G01*
G37*
G36*
G01*
X180195000Y-109638000D02*
X180195000Y-109538000D01*
G75*
G02*
X180245000Y-109488000I50000J0D01*
G01*
X181020000Y-109488000D01*
G75*
G02*
X181070000Y-109538000I0J-50000D01*
G01*
X181070000Y-109638000D01*
G75*
G02*
X181020000Y-109688000I-50000J0D01*
G01*
X180245000Y-109688000D01*
G75*
G02*
X180195000Y-109638000I0J50000D01*
G01*
G37*
G36*
G01*
X180195000Y-110038000D02*
X180195000Y-109938000D01*
G75*
G02*
X180245000Y-109888000I50000J0D01*
G01*
X181020000Y-109888000D01*
G75*
G02*
X181070000Y-109938000I0J-50000D01*
G01*
X181070000Y-110038000D01*
G75*
G02*
X181020000Y-110088000I-50000J0D01*
G01*
X180245000Y-110088000D01*
G75*
G02*
X180195000Y-110038000I0J50000D01*
G01*
G37*
G36*
G01*
X179695000Y-111213000D02*
X179695000Y-110438000D01*
G75*
G02*
X179745000Y-110388000I50000J0D01*
G01*
X179845000Y-110388000D01*
G75*
G02*
X179895000Y-110438000I0J-50000D01*
G01*
X179895000Y-111213000D01*
G75*
G02*
X179845000Y-111263000I-50000J0D01*
G01*
X179745000Y-111263000D01*
G75*
G02*
X179695000Y-111213000I0J50000D01*
G01*
G37*
G36*
G01*
X179295000Y-111213000D02*
X179295000Y-110438000D01*
G75*
G02*
X179345000Y-110388000I50000J0D01*
G01*
X179445000Y-110388000D01*
G75*
G02*
X179495000Y-110438000I0J-50000D01*
G01*
X179495000Y-111213000D01*
G75*
G02*
X179445000Y-111263000I-50000J0D01*
G01*
X179345000Y-111263000D01*
G75*
G02*
X179295000Y-111213000I0J50000D01*
G01*
G37*
G36*
G01*
X178895000Y-111213000D02*
X178895000Y-110438000D01*
G75*
G02*
X178945000Y-110388000I50000J0D01*
G01*
X179045000Y-110388000D01*
G75*
G02*
X179095000Y-110438000I0J-50000D01*
G01*
X179095000Y-111213000D01*
G75*
G02*
X179045000Y-111263000I-50000J0D01*
G01*
X178945000Y-111263000D01*
G75*
G02*
X178895000Y-111213000I0J50000D01*
G01*
G37*
G36*
G01*
X178495000Y-111213000D02*
X178495000Y-110438000D01*
G75*
G02*
X178545000Y-110388000I50000J0D01*
G01*
X178645000Y-110388000D01*
G75*
G02*
X178695000Y-110438000I0J-50000D01*
G01*
X178695000Y-111213000D01*
G75*
G02*
X178645000Y-111263000I-50000J0D01*
G01*
X178545000Y-111263000D01*
G75*
G02*
X178495000Y-111213000I0J50000D01*
G01*
G37*
G36*
G01*
X178095000Y-111213000D02*
X178095000Y-110438000D01*
G75*
G02*
X178145000Y-110388000I50000J0D01*
G01*
X178245000Y-110388000D01*
G75*
G02*
X178295000Y-110438000I0J-50000D01*
G01*
X178295000Y-111213000D01*
G75*
G02*
X178245000Y-111263000I-50000J0D01*
G01*
X178145000Y-111263000D01*
G75*
G02*
X178095000Y-111213000I0J50000D01*
G01*
G37*
G36*
G01*
X177695000Y-111213000D02*
X177695000Y-110438000D01*
G75*
G02*
X177745000Y-110388000I50000J0D01*
G01*
X177845000Y-110388000D01*
G75*
G02*
X177895000Y-110438000I0J-50000D01*
G01*
X177895000Y-111213000D01*
G75*
G02*
X177845000Y-111263000I-50000J0D01*
G01*
X177745000Y-111263000D01*
G75*
G02*
X177695000Y-111213000I0J50000D01*
G01*
G37*
G36*
G01*
X177295000Y-111213000D02*
X177295000Y-110438000D01*
G75*
G02*
X177345000Y-110388000I50000J0D01*
G01*
X177445000Y-110388000D01*
G75*
G02*
X177495000Y-110438000I0J-50000D01*
G01*
X177495000Y-111213000D01*
G75*
G02*
X177445000Y-111263000I-50000J0D01*
G01*
X177345000Y-111263000D01*
G75*
G02*
X177295000Y-111213000I0J50000D01*
G01*
G37*
G36*
G01*
X176895000Y-111213000D02*
X176895000Y-110438000D01*
G75*
G02*
X176945000Y-110388000I50000J0D01*
G01*
X177045000Y-110388000D01*
G75*
G02*
X177095000Y-110438000I0J-50000D01*
G01*
X177095000Y-111213000D01*
G75*
G02*
X177045000Y-111263000I-50000J0D01*
G01*
X176945000Y-111263000D01*
G75*
G02*
X176895000Y-111213000I0J50000D01*
G01*
G37*
G36*
G01*
X176495000Y-111213000D02*
X176495000Y-110438000D01*
G75*
G02*
X176545000Y-110388000I50000J0D01*
G01*
X176645000Y-110388000D01*
G75*
G02*
X176695000Y-110438000I0J-50000D01*
G01*
X176695000Y-111213000D01*
G75*
G02*
X176645000Y-111263000I-50000J0D01*
G01*
X176545000Y-111263000D01*
G75*
G02*
X176495000Y-111213000I0J50000D01*
G01*
G37*
G36*
G01*
X176095000Y-111213000D02*
X176095000Y-110438000D01*
G75*
G02*
X176145000Y-110388000I50000J0D01*
G01*
X176245000Y-110388000D01*
G75*
G02*
X176295000Y-110438000I0J-50000D01*
G01*
X176295000Y-111213000D01*
G75*
G02*
X176245000Y-111263000I-50000J0D01*
G01*
X176145000Y-111263000D01*
G75*
G02*
X176095000Y-111213000I0J50000D01*
G01*
G37*
G36*
G01*
X175695000Y-111213000D02*
X175695000Y-110438000D01*
G75*
G02*
X175745000Y-110388000I50000J0D01*
G01*
X175845000Y-110388000D01*
G75*
G02*
X175895000Y-110438000I0J-50000D01*
G01*
X175895000Y-111213000D01*
G75*
G02*
X175845000Y-111263000I-50000J0D01*
G01*
X175745000Y-111263000D01*
G75*
G02*
X175695000Y-111213000I0J50000D01*
G01*
G37*
G36*
G01*
X175295000Y-111213000D02*
X175295000Y-110438000D01*
G75*
G02*
X175345000Y-110388000I50000J0D01*
G01*
X175445000Y-110388000D01*
G75*
G02*
X175495000Y-110438000I0J-50000D01*
G01*
X175495000Y-111213000D01*
G75*
G02*
X175445000Y-111263000I-50000J0D01*
G01*
X175345000Y-111263000D01*
G75*
G02*
X175295000Y-111213000I0J50000D01*
G01*
G37*
G36*
G01*
X174895000Y-111213000D02*
X174895000Y-110438000D01*
G75*
G02*
X174945000Y-110388000I50000J0D01*
G01*
X175045000Y-110388000D01*
G75*
G02*
X175095000Y-110438000I0J-50000D01*
G01*
X175095000Y-111213000D01*
G75*
G02*
X175045000Y-111263000I-50000J0D01*
G01*
X174945000Y-111263000D01*
G75*
G02*
X174895000Y-111213000I0J50000D01*
G01*
G37*
G36*
G01*
X174495000Y-111213000D02*
X174495000Y-110438000D01*
G75*
G02*
X174545000Y-110388000I50000J0D01*
G01*
X174645000Y-110388000D01*
G75*
G02*
X174695000Y-110438000I0J-50000D01*
G01*
X174695000Y-111213000D01*
G75*
G02*
X174645000Y-111263000I-50000J0D01*
G01*
X174545000Y-111263000D01*
G75*
G02*
X174495000Y-111213000I0J50000D01*
G01*
G37*
G36*
G01*
X173320000Y-110038000D02*
X173320000Y-109938000D01*
G75*
G02*
X173370000Y-109888000I50000J0D01*
G01*
X174145000Y-109888000D01*
G75*
G02*
X174195000Y-109938000I0J-50000D01*
G01*
X174195000Y-110038000D01*
G75*
G02*
X174145000Y-110088000I-50000J0D01*
G01*
X173370000Y-110088000D01*
G75*
G02*
X173320000Y-110038000I0J50000D01*
G01*
G37*
G36*
G01*
X173320000Y-109638000D02*
X173320000Y-109538000D01*
G75*
G02*
X173370000Y-109488000I50000J0D01*
G01*
X174145000Y-109488000D01*
G75*
G02*
X174195000Y-109538000I0J-50000D01*
G01*
X174195000Y-109638000D01*
G75*
G02*
X174145000Y-109688000I-50000J0D01*
G01*
X173370000Y-109688000D01*
G75*
G02*
X173320000Y-109638000I0J50000D01*
G01*
G37*
G36*
G01*
X173320000Y-109238000D02*
X173320000Y-109138000D01*
G75*
G02*
X173370000Y-109088000I50000J0D01*
G01*
X174145000Y-109088000D01*
G75*
G02*
X174195000Y-109138000I0J-50000D01*
G01*
X174195000Y-109238000D01*
G75*
G02*
X174145000Y-109288000I-50000J0D01*
G01*
X173370000Y-109288000D01*
G75*
G02*
X173320000Y-109238000I0J50000D01*
G01*
G37*
G36*
G01*
X173320000Y-108838000D02*
X173320000Y-108738000D01*
G75*
G02*
X173370000Y-108688000I50000J0D01*
G01*
X174145000Y-108688000D01*
G75*
G02*
X174195000Y-108738000I0J-50000D01*
G01*
X174195000Y-108838000D01*
G75*
G02*
X174145000Y-108888000I-50000J0D01*
G01*
X173370000Y-108888000D01*
G75*
G02*
X173320000Y-108838000I0J50000D01*
G01*
G37*
G36*
G01*
X173320000Y-108438000D02*
X173320000Y-108338000D01*
G75*
G02*
X173370000Y-108288000I50000J0D01*
G01*
X174145000Y-108288000D01*
G75*
G02*
X174195000Y-108338000I0J-50000D01*
G01*
X174195000Y-108438000D01*
G75*
G02*
X174145000Y-108488000I-50000J0D01*
G01*
X173370000Y-108488000D01*
G75*
G02*
X173320000Y-108438000I0J50000D01*
G01*
G37*
G36*
G01*
X173320000Y-108038000D02*
X173320000Y-107938000D01*
G75*
G02*
X173370000Y-107888000I50000J0D01*
G01*
X174145000Y-107888000D01*
G75*
G02*
X174195000Y-107938000I0J-50000D01*
G01*
X174195000Y-108038000D01*
G75*
G02*
X174145000Y-108088000I-50000J0D01*
G01*
X173370000Y-108088000D01*
G75*
G02*
X173320000Y-108038000I0J50000D01*
G01*
G37*
G36*
G01*
X173320000Y-107638000D02*
X173320000Y-107538000D01*
G75*
G02*
X173370000Y-107488000I50000J0D01*
G01*
X174145000Y-107488000D01*
G75*
G02*
X174195000Y-107538000I0J-50000D01*
G01*
X174195000Y-107638000D01*
G75*
G02*
X174145000Y-107688000I-50000J0D01*
G01*
X173370000Y-107688000D01*
G75*
G02*
X173320000Y-107638000I0J50000D01*
G01*
G37*
G36*
G01*
X173320000Y-107238000D02*
X173320000Y-107138000D01*
G75*
G02*
X173370000Y-107088000I50000J0D01*
G01*
X174145000Y-107088000D01*
G75*
G02*
X174195000Y-107138000I0J-50000D01*
G01*
X174195000Y-107238000D01*
G75*
G02*
X174145000Y-107288000I-50000J0D01*
G01*
X173370000Y-107288000D01*
G75*
G02*
X173320000Y-107238000I0J50000D01*
G01*
G37*
G36*
G01*
X173320000Y-106838000D02*
X173320000Y-106738000D01*
G75*
G02*
X173370000Y-106688000I50000J0D01*
G01*
X174145000Y-106688000D01*
G75*
G02*
X174195000Y-106738000I0J-50000D01*
G01*
X174195000Y-106838000D01*
G75*
G02*
X174145000Y-106888000I-50000J0D01*
G01*
X173370000Y-106888000D01*
G75*
G02*
X173320000Y-106838000I0J50000D01*
G01*
G37*
G36*
G01*
X173320000Y-106438000D02*
X173320000Y-106338000D01*
G75*
G02*
X173370000Y-106288000I50000J0D01*
G01*
X174145000Y-106288000D01*
G75*
G02*
X174195000Y-106338000I0J-50000D01*
G01*
X174195000Y-106438000D01*
G75*
G02*
X174145000Y-106488000I-50000J0D01*
G01*
X173370000Y-106488000D01*
G75*
G02*
X173320000Y-106438000I0J50000D01*
G01*
G37*
G36*
G01*
X173320000Y-106038000D02*
X173320000Y-105938000D01*
G75*
G02*
X173370000Y-105888000I50000J0D01*
G01*
X174145000Y-105888000D01*
G75*
G02*
X174195000Y-105938000I0J-50000D01*
G01*
X174195000Y-106038000D01*
G75*
G02*
X174145000Y-106088000I-50000J0D01*
G01*
X173370000Y-106088000D01*
G75*
G02*
X173320000Y-106038000I0J50000D01*
G01*
G37*
G36*
G01*
X173320000Y-105638000D02*
X173320000Y-105538000D01*
G75*
G02*
X173370000Y-105488000I50000J0D01*
G01*
X174145000Y-105488000D01*
G75*
G02*
X174195000Y-105538000I0J-50000D01*
G01*
X174195000Y-105638000D01*
G75*
G02*
X174145000Y-105688000I-50000J0D01*
G01*
X173370000Y-105688000D01*
G75*
G02*
X173320000Y-105638000I0J50000D01*
G01*
G37*
G36*
G01*
X173320000Y-105238000D02*
X173320000Y-105138000D01*
G75*
G02*
X173370000Y-105088000I50000J0D01*
G01*
X174145000Y-105088000D01*
G75*
G02*
X174195000Y-105138000I0J-50000D01*
G01*
X174195000Y-105238000D01*
G75*
G02*
X174145000Y-105288000I-50000J0D01*
G01*
X173370000Y-105288000D01*
G75*
G02*
X173320000Y-105238000I0J50000D01*
G01*
G37*
G36*
G01*
X173320000Y-104838000D02*
X173320000Y-104738000D01*
G75*
G02*
X173370000Y-104688000I50000J0D01*
G01*
X174145000Y-104688000D01*
G75*
G02*
X174195000Y-104738000I0J-50000D01*
G01*
X174195000Y-104838000D01*
G75*
G02*
X174145000Y-104888000I-50000J0D01*
G01*
X173370000Y-104888000D01*
G75*
G02*
X173320000Y-104838000I0J50000D01*
G01*
G37*
G36*
G01*
X177290283Y-108317717D02*
X177290283Y-107733283D01*
G75*
G02*
X177540283Y-107483283I250000J0D01*
G01*
X178124717Y-107483283D01*
G75*
G02*
X178374717Y-107733283I0J-250000D01*
G01*
X178374717Y-108317717D01*
G75*
G02*
X178124717Y-108567717I-250000J0D01*
G01*
X177540283Y-108567717D01*
G75*
G02*
X177290283Y-108317717I0J250000D01*
G01*
G37*
G36*
G01*
X177290283Y-107042717D02*
X177290283Y-106458283D01*
G75*
G02*
X177540283Y-106208283I250000J0D01*
G01*
X178124717Y-106208283D01*
G75*
G02*
X178374717Y-106458283I0J-250000D01*
G01*
X178374717Y-107042717D01*
G75*
G02*
X178124717Y-107292717I-250000J0D01*
G01*
X177540283Y-107292717D01*
G75*
G02*
X177290283Y-107042717I0J250000D01*
G01*
G37*
G36*
G01*
X176015283Y-108317717D02*
X176015283Y-107733283D01*
G75*
G02*
X176265283Y-107483283I250000J0D01*
G01*
X176849717Y-107483283D01*
G75*
G02*
X177099717Y-107733283I0J-250000D01*
G01*
X177099717Y-108317717D01*
G75*
G02*
X176849717Y-108567717I-250000J0D01*
G01*
X176265283Y-108567717D01*
G75*
G02*
X176015283Y-108317717I0J250000D01*
G01*
G37*
G36*
G01*
X176015283Y-107042717D02*
X176015283Y-106458283D01*
G75*
G02*
X176265283Y-106208283I250000J0D01*
G01*
X176849717Y-106208283D01*
G75*
G02*
X177099717Y-106458283I0J-250000D01*
G01*
X177099717Y-107042717D01*
G75*
G02*
X176849717Y-107292717I-250000J0D01*
G01*
X176265283Y-107292717D01*
G75*
G02*
X176015283Y-107042717I0J250000D01*
G01*
G37*
%TD*%
D27*
%TO.C,U2*%
X167891000Y-97037500D03*
X167891000Y-98307500D03*
X167891000Y-99577500D03*
X167891000Y-100847500D03*
X173291000Y-100847500D03*
X173291000Y-99577500D03*
X173291000Y-98307500D03*
X173291000Y-97037500D03*
%TD*%
M02*
