M48
; DRILL file {KiCad (5.1.12)-1} date 12/23/21 20:15:40
; FORMAT={-:-/ absolute / inch / decimal}
; #@! TF.CreationDate,2021-12-23T20:15:40-08:00
; #@! TF.GenerationSoftware,Kicad,Pcbnew,(5.1.12)-1
; #@! TF.FileFunction,Plated,1,2,PTH
FMAT,2
INCH
T1C0.0118
T2C0.0138
T3C0.0157
T4C0.0217
T5C0.0256
T6C0.0276
T7C0.0335
%
G90
G05
T1
X6.338Y-4.254
X6.35Y-4.36
X6.37Y-4.138
X6.378Y-3.3307
X6.38Y-4.19
X6.3819Y-3.4055
X6.3819Y-4.9646
X6.3858Y-4.874
X6.408Y-3.996
X6.4173Y-3.252
X6.4173Y-4.5945
X6.42Y-4.416
X6.42Y-4.504
X6.4252Y-3.4646
X6.4528Y-5.0315
X6.4567Y-4.815
X6.4775Y-4.412
X6.478Y-4.084
X6.478Y-4.19
X6.48Y-4.245
X6.4862Y-3.8484
X6.4921Y-4.6063
X6.4961Y-3.2283
X6.5Y-3.4803
X6.5Y-3.786
X6.5175Y-4.2075
X6.5275Y-4.4175
X6.5354Y-3.6516
X6.5354Y-3.7795
X6.5354Y-5.0315
X6.5394Y-4.815
X6.54Y-4.305
X6.5472Y-4.748
X6.5551Y-4.6024
X6.56Y-4.0825
X6.563Y-4.5079
X6.564Y-4.472
X6.5748Y-3.252
X6.5748Y-3.4567
X6.5825Y-4.27
X6.592Y-4.164
X6.5975Y-4.325
X6.5984Y-4.8661
X6.6063Y-4.9646
X6.6102Y-3.4055
X6.6142Y-3.3346
X6.6339Y-3.6516
X6.6378Y-4.6024
X6.64Y-4.41
X6.6417Y-4.7283
X6.642Y-4.528
X6.658Y-4.204
X6.6634Y-3.9961
X6.665Y-3.8975
X6.6675Y-3.8475
X6.6732Y-3.7992
X6.686Y-4.884
X6.6969Y-4.6535
X6.7323Y-3.7205
X6.7562Y-3.9879
X6.764Y-4.57
X6.766Y-4.726
X6.7717Y-3.626
X6.772Y-4.13
X6.7736Y-4.0905
X6.784Y-4.312
X6.7933Y-3.6831
X6.8189Y-4.5984
X6.832Y-4.474
X6.834Y-4.728
X6.8602Y-4.0059
X6.872Y-3.5945
X6.8819Y-3.8327
X6.884Y-4.534
X6.8898Y-3.6614
X6.8898Y-3.7697
X6.89Y-4.744
X6.904Y-4.888
X6.9683Y-3.9957
X6.9962Y-4.4579
X7.0Y-4.3125
X7.006Y-4.627
X7.0079Y-3.8189
X7.016Y-4.734
X7.0312Y-4.1379
X7.0866Y-4.5866
X7.0958Y-3.4547
X7.0958Y-3.6713
X7.1Y-3.81
X7.13Y-4.89
X7.1535Y-4.4843
X7.1549Y-3.3169
X7.1575Y-4.2165
X7.1654Y-4.7244
X7.2087Y-3.7795
X7.2139Y-3.38
X7.2441Y-4.4488
X7.2598Y-3.6535
X7.26Y-3.5525
X7.27Y-3.91
X7.2913Y-4.2953
X7.315Y-3.7008
X7.3196Y-4.0104
X7.3228Y-4.0945
X7.3228Y-4.2008
X7.3327Y-4.498
X7.3327Y-4.5965
X7.3386Y-3.6024
X7.3425Y-3.525
X7.3425Y-3.9803
X7.3465Y-3.4449
X7.38Y-4.1575
X7.4094Y-3.4173
X7.4175Y-3.52
X7.4291Y-4.2992
X7.437Y-4.4646
X7.4409Y-3.7598
X7.4409Y-4.0945
X7.4449Y-4.2165
X7.4488Y-4.3819
X7.46Y-3.385
X7.5039Y-3.2362
X7.5098Y-3.2972
X7.5125Y-3.4925
X7.515Y-3.6
X7.5197Y-3.8583
X7.55Y-4.22
X7.5591Y-3.7795
X7.565Y-3.3225
X7.5886Y-4.4882
X7.5886Y-4.5965
X7.5945Y-3.1654
X7.5998Y-3.4439
X7.6Y-3.26
X7.6Y-3.63
X7.6102Y-3.6732
X7.63Y-3.3225
X7.6378Y-3.8583
X7.6378Y-4.0945
X7.6693Y-4.1614
X7.68Y-3.38
X7.6811Y-3.2874
X7.6929Y-3.2283
X7.7165Y-4.0551
X7.7244Y-3.8858
X7.7362Y-4.1732
X7.7362Y-4.252
X7.7559Y-3.5335
X7.7655Y-3.7202
X7.7677Y-3.2677
X7.7717Y-3.3504
X7.7795Y-3.1693
X7.8346Y-3.7205
X7.8346Y-3.8189
X7.8346Y-4.4094
X7.8346Y-4.4882
X7.8346Y-4.5866
X7.8425Y-3.3465
X7.8445Y-3.5335
X7.8445Y-3.6024
X7.8543Y-3.8976
X7.8819Y-4.1614
X7.8937Y-3.3937
X7.9134Y-3.3071
X7.9213Y-3.7165
X7.9331Y-3.4606
X7.9567Y-3.3819
X7.9606Y-4.878
X7.9606Y-4.9606
X7.9646Y-3.2835
X7.9724Y-3.8976
X7.9724Y-4.0748
X7.9823Y-3.5925
X7.9961Y-3.5236
X8.0039Y-5.0197
X8.0157Y-3.4528
X8.0157Y-4.8189
X8.0354Y-3.748
X8.0354Y-3.8346
X8.0512Y-3.622
X8.0709Y-5.0394
X8.0945Y-3.5276
X8.0984Y-4.811
X8.126Y-3.2362
X8.1378Y-3.4449
X8.1535Y-5.0157
X8.1654Y-4.8583
X8.1772Y-3.2835
X8.185Y-3.378
X8.185Y-4.9331
X8.2323Y-3.4528
T2
X6.926Y-4.1777
X6.926Y-4.2279
X6.926Y-4.2781
X6.9762Y-4.1777
X6.9762Y-4.2279
X6.9762Y-4.2781
X7.0264Y-4.1777
X7.0264Y-4.2279
X7.0264Y-4.2781
T3
X8.0197Y-3.2323
T5
X6.362Y-3.8
X6.362Y-3.85
X6.362Y-3.9
X6.362Y-3.95
X6.362Y-4.0
X6.362Y-4.05
X6.364Y-4.514
X6.364Y-4.564
X6.364Y-4.614
X6.364Y-4.664
X7.3543Y-4.3543
X7.3543Y-4.4043
X7.4043Y-4.3543
X7.4043Y-4.4043
X7.7126Y-3.6142
X7.7126Y-3.6642
X7.8212Y-3.2129
X7.8712Y-3.2129
X8.0112Y-4.4479
X8.0112Y-4.4979
X8.0112Y-4.5479
X8.05Y-4.12
X8.05Y-4.17
X8.05Y-4.22
X8.05Y-4.27
X8.1102Y-3.8031
X8.1102Y-3.8531
X8.185Y-3.4921
X8.185Y-3.5421
T6
X7.2Y-3.4852
X7.2Y-3.56
X7.46Y-3.48
X7.46Y-3.5548
T4
G00X6.9736Y-3.2389
M15
G01X6.9736Y-3.2133
M16
G05
G00X7.2787Y-3.2389
M15
G01X7.2787Y-3.2133
M16
G05
T7
G00X6.9795Y-3.3865
M15
G01X6.9795Y-3.3649
M16
G05
G00X7.2728Y-3.3865
M15
G01X7.2728Y-3.3649
M16
G05
T0
M30
